# xmcd
#
# Track frame offsets: 
#        150
#        17883
#        34787
#        49104
#        64616
#        83309
#        100334
#        117985
#        133904
#        152582
#        164962
#        184029
#        198626
#
# Disc length: 2868 seconds
#
# Revision: 0
# Processed by: cddbd v1.5.2PL0 Copyright (c) Steve Scherf et al.
# Submitted via: ExactAudioCopyFreeDBPlugin 1.0
#
DISCID=b00b320d
DTITLE=Zoë - The Acoustic Sessions
DYEAR=2017
DGENRE=Pop
TTITLE0=Show Me Something
TTITLE1=Heartbreaker
TTITLE2=Komm zu mir zurück
TTITLE3=I Just Can't Stop
TTITLE4=S'Aimer À Jamais
TTITLE5=Does It Feel Alright
TTITLE6=Please Come Home
TTITLE7=Easy
TTITLE8=Violet
TTITLE9=Dangerous Affair
TTITLE10=Une Belle Histoire
TTITLE11=Outside My Window
TTITLE12=Mon Petit Nuage
EXTD=
EXTT0=
EXTT1=
EXTT2=
EXTT3=
EXTT4=
EXTT5=
EXTT6=
EXTT7=
EXTT8=
EXTT9=
EXTT10=
EXTT11=
EXTT12=
PLAYORDER=
